<?xml version="1.0" ?><!DOCTYPE svg  PUBLIC '-//W3C//DTD SVG 1.1//EN'  'http://www.w3.org/Graphics/SVG/1.1/DTD/svg11.dtd'><svg enable-background="new 0 0 512 512" height="512px" id="icon" version="1.1" viewBox="0 0 512 512" width="512px" xml:space="preserve" xmlns="http://www.w3.org/2000/svg" xmlns:xlink="http://www.w3.org/1999/xlink"><g><path d="M400.856,145.968V78.427H373.55V48.973H140.79L85.74,99.434v308.068h27.302v29.455h58.537v26.07h254.68v-317.06H400.856z    M138.678,60.288v41.703H93.183L138.678,60.288z M92.655,108.905h52.936V55.887h221.047v344.7H92.655V108.905z M119.957,407.502   H373.55V85.341h20.393v344.702H119.957V407.502z M419.347,456.115H178.496v-19.158h222.36V152.882h18.49V456.115z"/><polygon points="154.259,179.405 131.912,156.105 154.259,132.807 149.27,128.02 122.329,156.105 149.27,184.192  "/><polygon points="296.427,288.113 318.776,311.412 296.427,334.711 301.415,339.499 328.358,311.412 301.415,283.326  "/><rect height="54.801" transform="matrix(0.9377 0.3476 -0.3476 0.9377 65.2732 -51.6851)" width="6.918" x="173.25" y="128.705"/><rect height="6.914" width="3.458" x="203.431" y="152.649"/><rect height="6.914" width="6.66" x="306.79" y="152.649"/><rect height="6.914" width="6.664" x="293.468" y="152.649"/><rect height="6.914" width="6.662" x="280.149" y="152.649"/><rect height="6.914" width="6.661" x="240.189" y="152.649"/><rect height="6.914" width="6.658" x="253.509" y="152.649"/><rect height="6.914" width="6.659" x="226.87" y="152.649"/><rect height="6.914" width="6.658" x="266.831" y="152.649"/><rect height="6.914" width="6.66" x="213.548" y="152.649"/><rect height="6.914" width="3.459" x="320.11" y="152.649"/><rect height="6.914" width="6.915" x="192.204" y="207.922"/><rect height="6.914" width="6.914" x="275.171" y="207.922"/><rect height="6.914" width="6.916" x="206.032" y="207.922"/><rect height="6.914" width="6.915" x="136.894" y="207.922"/><rect height="6.914" width="6.913" x="178.378" y="207.922"/><rect height="6.914" width="2.858" x="127.122" y="207.922"/><rect height="6.914" width="6.913" x="164.55" y="207.922"/><rect height="6.914" width="6.913" x="150.722" y="207.922"/><rect height="6.914" width="6.915" x="247.516" y="207.922"/><rect height="6.914" width="6.914" x="219.86" y="207.922"/><rect height="6.914" width="6.914" x="261.343" y="207.922"/><rect height="6.914" width="6.914" x="288.999" y="207.922"/><rect height="6.914" width="6.913" x="233.689" y="207.922"/><rect height="6.914" width="6.914" x="316.655" y="207.922"/><rect height="6.914" width="6.914" x="302.827" y="207.922"/><rect height="6.913" width="6.913" x="182.435" y="258.476"/><rect height="6.913" width="6.913" x="168.606" y="258.476"/><rect height="6.913" width="6.913" x="223.917" y="258.476"/><rect height="6.913" width="6.915" x="196.261" y="258.476"/><rect height="6.913" width="6.915" x="237.743" y="258.476"/><rect height="6.913" width="6.913" x="210.089" y="258.476"/><rect height="6.913" width="6.913" x="127.122" y="258.476"/><rect height="6.913" width="6.913" x="140.95" y="258.476"/><rect height="6.913" width="6.913" x="154.778" y="258.476"/><rect height="6.914" width="6.913" x="215.103" y="307.955"/><rect height="6.914" width="6.913" x="242.759" y="307.955"/><rect height="6.914" width="6.913" x="228.931" y="307.955"/><rect height="6.914" width="6.912" x="256.587" y="307.955"/><rect height="6.914" width="6.915" x="159.792" y="307.955"/><rect height="6.914" width="6.913" x="145.966" y="307.955"/><rect height="6.914" width="6.915" x="132.136" y="307.955"/><rect height="6.914" width="6.915" x="201.274" y="307.955"/><rect height="6.914" width="6.913" x="173.62" y="307.955"/><rect height="6.914" width="6.913" x="187.448" y="307.955"/></g></svg>