<?xml version="1.0" ?><!DOCTYPE svg  PUBLIC '-//W3C//DTD SVG 1.1//EN'  'http://www.w3.org/Graphics/SVG/1.1/DTD/svg11.dtd'><svg enable-background="new 0 0 512 512" height="512px" id="icon" version="1.1" viewBox="0 0 512 512" width="512px" xml:space="preserve" xmlns="http://www.w3.org/2000/svg" xmlns:xlink="http://www.w3.org/1999/xlink"><path d="M371.85,448.245l-264.261-76.801l118.859-29.969c8.81,2.355,18.017,3.711,27.493,3.979v46.371h6.873v-46.371  c30.335-0.86,57.874-13.028,78.551-32.448l60.79-15.326l3.879,13.574l32.501-29.051l-42.944-7.494l4.677,16.359l-49.97,12.598  c18.035-20.986,28.969-48.238,28.969-78.014c0-64.957-51.937-117.976-116.459-119.802V88.265h-6.874v17.587  c-64.514,1.833-116.444,54.85-116.444,119.802c0,50.893,31.889,94.451,76.725,111.818L97.901,366.798V82.425h15.568L94.468,43.192  L75.466,82.425h15.563v293.193l3.374-0.85l274.901,79.894l-5.606,14.146l43.467-3.2l-29.462-32.132L371.85,448.245z   M421.375,286.535l-13.75,12.288l-4.415-15.458L421.375,286.535z M260.807,112.724c56.874,1.707,103.328,45.604,109.003,101.413  c-17.458-12.49-63.087-19.105-109.003-19.42V112.724z M253.933,112.724v81.993c-45.911,0.315-91.529,6.932-108.987,19.42  C150.619,158.333,197.065,114.438,253.933,112.724z M253.933,201.592v24.062h6.874v-24.062  c67.98,0.45,109.587,14.172,109.587,24.062c0,10.058-42.995,24.084-113.016,24.084c-70.022,0-113.017-14.026-113.017-24.084  C144.361,215.764,185.961,202.045,253.933,201.592z M144.945,237.171c17.894,12.801,65.377,19.438,112.433,19.438  c47.055,0,94.538-6.638,112.432-19.438c-1.298,12.781-4.761,24.928-9.973,36.1c-26,6.896-63.189,10.85-102.459,10.85  c-39.269,0-76.454-3.951-102.458-10.848C149.707,262.101,146.243,249.953,144.945,237.171z M159.129,281.4  c26.107,6.12,61.31,9.593,98.249,9.593c36.938,0,72.142-3.473,98.251-9.594c-19.462,34.166-56.198,57.271-98.251,57.271  S178.59,315.565,159.129,281.4z M86.427,75.552l8.041-16.595l8.036,16.595H86.427z M392.512,459.796l-18.385,1.354l5.925-14.943  L392.512,459.796z" fill="#1D1D1B"/></svg>