<?xml version="1.0" ?><!DOCTYPE svg  PUBLIC '-//W3C//DTD SVG 1.1//EN'  'http://www.w3.org/Graphics/SVG/1.1/DTD/svg11.dtd'><svg enable-background="new 0 0 512 512" height="512px" id="icon" version="1.1" viewBox="0 0 512 512" width="512px" xml:space="preserve" xmlns="http://www.w3.org/2000/svg" xmlns:xlink="http://www.w3.org/1999/xlink"><g><path d="M107.473,107.315H93.187c-5.482,0-9.938,4.459-9.938,9.938v31.064c0,5.482,4.455,9.943,9.938,9.943h14.286   c5.479,0,9.938-4.461,9.938-9.943v-31.064C117.41,111.774,112.952,107.315,107.473,107.315z M110.49,148.317   c0,1.67-1.354,3.023-3.018,3.023H93.187c-1.664,0-3.018-1.354-3.018-3.023v-31.064c0-1.664,1.354-3.018,3.018-3.018h14.286   c1.664,0,3.018,1.354,3.018,3.018V148.317z" fill="#1D1D1B"/><polygon fill="#1D1D1B" points="160.069,154.802 166.991,154.802 166.991,107.315 146.933,107.315 146.933,114.235    160.069,114.235  "/><path d="M214.207,158.261h14.282c5.479,0,9.939-4.461,9.939-9.943v-31.064c0-5.479-4.46-9.938-9.939-9.938h-14.282   c-5.482,0-9.943,4.459-9.943,9.938v31.064C204.264,153.8,208.725,158.261,214.207,158.261z M211.186,117.253   c0-1.664,1.355-3.018,3.021-3.018h14.282c1.664,0,3.018,1.354,3.018,3.018v31.064c0,1.67-1.354,3.023-3.018,3.023h-14.282   c-1.666,0-3.021-1.354-3.021-3.023V117.253z" fill="#1D1D1B"/><path d="M177.963,234.493v-31.066c0-5.48-4.458-9.939-9.943-9.939h-14.283c-5.481,0-9.939,4.459-9.939,9.939v31.066   c0,5.484,4.458,9.939,9.939,9.939h14.283C173.505,244.433,177.963,239.978,177.963,234.493z M150.719,234.493v-31.066   c0-1.664,1.354-3.023,3.018-3.023h14.283c1.668,0,3.023,1.359,3.023,3.023v31.066c0,1.666-1.355,3.02-3.023,3.02h-14.283   C152.072,237.513,150.719,236.159,150.719,234.493z" fill="#1D1D1B"/><polygon fill="#1D1D1B" points="207.48,200.403 220.621,200.403 220.621,240.974 227.541,240.974 227.541,193.487 207.48,193.487     "/><polygon fill="#1D1D1B" points="92.032,200.403 105.173,200.403 105.173,240.974 112.093,240.974 112.093,193.487 92.032,193.487     "/><path d="M463.334,277.251c-1.637-0.953-3.596-1.121-5.568-0.518l-13.311-7.236V107.308h-64.971V90.919   l-39.717,19.85l39.717,19.855v-16.395h58.051v151.508l-75.771-41.188l-96,52.184c-0.758-0.23-1.514-0.361-2.262-0.361   c-4.025,0-6.834,3.266-6.834,7.938v108.234c0,5.156,3.266,10.879,7.604,13.313l89.963,50.469c1.381,0.775,2.779,1.166,4.152,1.166   c1.268,0,2.389-0.35,3.367-0.936c0.025,0.016,0.045,0.041,0.068,0.055c1.004,0.588,2.127,0.881,3.305,0.881   c1.355,0,2.779-0.391,4.168-1.166l89.963-50.469c4.332-2.434,7.602-8.156,7.602-13.313V284.31   C466.859,281.134,465.574,278.562,463.334,277.251z M372.561,119.429l-17.316-8.66l17.316-8.652V119.429z M358.301,449.56   c0,0.486-0.066,0.797-0.125,0.973c-0.139-0.043-0.326-0.113-0.559-0.244l-89.961-50.471c-2.129-1.193-4.068-4.66-4.068-7.273   V284.31c0-0.486,0.066-0.799,0.125-0.977c0.129,0.043,0.316,0.113,0.559,0.248l89.963,50.471c2.133,1.188,4.066,4.658,4.066,7.275   V449.56z M358.387,454.032v-3.461h0.008L358.387,454.032z M361.764,331.735c-1.18-1.545-2.59-2.852-4.146-3.721l-84.498-47.404   l88.645-48.186l88.641,48.186l-84.492,47.404C364.354,328.884,362.943,330.19,361.764,331.735z M459.939,392.544   c0,2.613-1.941,6.08-4.066,7.273l-89.961,50.471c-0.238,0.131-0.43,0.207-0.563,0.244c-0.059-0.176-0.129-0.486-0.129-0.973   V341.327c0-2.613,1.941-6.08,4.074-7.275l89.969-50.471c0.23-0.131,0.416-0.205,0.549-0.248c0.061,0.178,0.127,0.49,0.127,0.977   V392.544z" fill="#1D1D1B"/><path d="M190.009,363.472H103.79v-88.42c17.553,10.303,37.964,16.242,59.743,16.242   c65.28,0,118.391-53.109,118.391-118.396c0-65.279-53.11-118.389-118.391-118.389c-65.282,0-118.393,53.109-118.393,118.389   c0,40.578,20.525,76.441,51.729,97.785v99.711h93.14v16.395l39.71-19.854l-39.71-19.854V363.472z M52.061,172.897   c0-61.461,50.008-111.469,111.473-111.469s111.471,50.008,111.471,111.469c0,61.471-50.006,111.475-111.471,111.475   S52.061,234.368,52.061,172.897z M196.927,358.28l17.315,8.654l-17.315,8.656V358.28z" fill="#1D1D1B"/><rect fill="#1D1D1B" height="6.922" width="21.197" x="310.947" y="107.308"/><rect fill="#1D1D1B" height="6.922" width="17.492" x="278.465" y="107.308"/><rect fill="#1D1D1B" height="6.922" width="12.734" x="234.967" y="363.472"/></g></svg>